<svg height="64" viewBox="0 0 1024 1024" width="64" xmlns="http://www.w3.org/2000/svg"><path d="m814.2 80.4c13.3 0 25.8 5.2 35.3 14.7s14.7 22 14.7 35.3v763.6c0 13.3-5.2 25.8-14.7 35.3s-22 14.7-35.3 14.7h-556.1c-13.3 0-25.8-5.2-35.3-14.7s-14.7-22-14.7-35.3v-763.7c0-13.3 5.2-25.8 14.7-35.3s22-14.7 35.3-14.7h556.1m0-15.9h-556.1c-36.3 0-66 29.7-66 66v763.6c0 36.3 29.7 66 66 66h556.1c36.3 0 66-29.7 66-66v-763.7c-.1-36.3-29.8-65.9-66-65.9z" fill="#581166"/><path d="m814.2 80.4c13.3 0 25.8 5.2 35.3 14.7s14.7 22 14.7 35.3v763.6c0 13.3-5.2 25.8-14.7 35.3s-22 14.7-35.3 14.7h-556.1c-13.3 0-25.8-5.2-35.3-14.7s-14.7-22-14.7-35.3v-763.7c0-13.3 5.2-25.8 14.7-35.3s22-14.7 35.3-14.7h556.1" fill="#ffc86b"/><g fill="#581166"><path d="m775 903.7h-429c-13.6 0-26.4-5.5-36.1-15.5-9.6-9.9-14.9-23-14.9-36.9v-678.3c0-13.9 5.3-27 14.9-36.9 9.7-10 22.5-15.5 36.1-15.5h429c13.6 0 26.4 5.5 36.1 15.5 9.6 9.9 14.9 23 14.9 36.9v678.3c0 13.9-5.3 27-14.9 36.9-9.7 10-22.5 15.5-36.1 15.5zm-429-767.1c-9.2 0-18 3.8-24.6 10.6-6.7 6.9-10.4 16.1-10.4 25.8v678.3c0 9.7 3.7 18.8 10.4 25.8 6.6 6.8 15.4 10.6 24.6 10.6h429c9.2 0 18-3.8 24.6-10.6 6.7-6.9 10.4-16.1 10.4-25.8v-678.3c0-9.7-3.7-18.8-10.4-25.8-6.6-6.8-15.4-10.6-24.6-10.6z"/><path d="m221.5 196.4a24 24 0 1 0 48 0 24 24 0 1 0 -48 0z"/><path d="m221.5 302.9a24 24 0 1 0 48 0 24 24 0 1 0 -48 0z"/><path d="m221.5 409.3a24 24 0 1 0 48 0 24 24 0 1 0 -48 0z"/><path d="m221.5 515.8a24 24 0 1 0 48 0 24 24 0 1 0 -48 0z"/><path d="m221.5 622.3a24 24 0 1 0 48 0 24 24 0 1 0 -48 0z"/><path d="m221.5 728.7a24 24 0 1 0 48 0 24 24 0 1 0 -48 0z"/><path d="m221.5 835.2a24 24 0 1 0 48 0 24 24 0 1 0 -48 0z"/></g><path d="m346 136.6c-9.2 0-18 3.8-24.6 10.6-6.7 6.9-10.4 16.1-10.4 25.8v678.3c0 9.7 3.7 18.8 10.4 25.8 6.6 6.8 15.4 10.6 24.6 10.6h429c9.2 0 18-3.8 24.6-10.6 6.7-6.9 10.4-16.1 10.4-25.8v-678.3c0-9.7-3.7-18.8-10.4-25.8-6.6-6.8-15.4-10.6-24.6-10.6z" fill="#fff6e9"/><path d="m236.8 211.4h-77.9c-8.2 0-15-6.8-15-15s6.8-15 15-15h77.9c8.2 0 15 6.7 15 15s-6.7 15-15 15zm0 106.5h-77.9c-8.2 0-15-6.8-15-15s6.8-15 15-15h77.9c8.2 0 15 6.7 15 15 0 8.2-6.7 15-15 15zm0 106.4h-77.9c-8.2 0-15-6.7-15-15 0-8.2 6.8-15 15-15h77.9c8.2 0 15 6.8 15 15 0 8.3-6.7 15-15 15zm0 106.5h-77.9c-8.2 0-15-6.8-15-15s6.8-15 15-15h77.9c8.2 0 15 6.8 15 15 0 8.3-6.7 15-15 15zm0 106.5h-77.9c-8.2 0-15-6.8-15-15s6.8-15 15-15h77.9c8.2 0 15 6.8 15 15s-6.7 15-15 15zm0 106.4h-77.9c-8.2 0-15-6.8-15-15s6.8-15 15-15h77.9c8.2 0 15 6.8 15 15 0 8.3-6.7 15-15 15zm0 106.5h-77.9c-8.2 0-15-6.8-15-15s6.8-15 15-15h77.9c8.2 0 15 6.8 15 15 0 8.3-6.7 15-15 15zm491.8-620.8h-225.2c-4.4 0-8 3.6-8 8s3.6 8 8 8h225.2c4.4 0 8-3.6 8-8s-3.6-8-8-8zm0 65.5h-225.2c-4.4 0-8 3.6-8 8s3.6 8 8 8h225.2c4.4 0 8-3.6 8-8s-3.6-8-8-8zm-311.9 456.8h-12.7c-4.4 0-8 3.6-8 8s3.6 8 8 8h12.7c4.4 0 8-3.6 8-8s-3.6-8-8-8zm42.9 0h-12.7c-4.4 0-8 3.6-8 8s3.6 8 8 8h12.7c4.4 0 8-3.6 8-8s-3.6-8-8-8zm42.9 0h-12.7c-4.4 0-8 3.6-8 8s3.6 8 8 8h12.7c4.4 0 8-3.6 8-8s-3.6-8-8-8zm42.9 0h-12.7c-4.4 0-8 3.6-8 8s3.6 8 8 8h12.7c4.4 0 8-3.6 8-8s-3.6-8-8-8zm42.9 0h-12.7c-4.4 0-8 3.6-8 8s3.6 8 8 8h12.7c4.4 0 8-3.6 8-8s-3.6-8-8-8zm42.9 0h-12.7c-4.4 0-8 3.6-8 8s3.6 8 8 8h12.7c4.4 0 8-3.6 8-8s-3.6-8-8-8zm42.9 0h-12.7c-4.4 0-8 3.6-8 8s3.6 8 8 8h12.7c4.4 0 8-3.6 8-8s-3.6-8-8-8zm42.9 0h-12.7c-4.4 0-8 3.6-8 8s3.6 8 8 8h12.7c4.4 0 8-3.6 8-8s-3.6-8-8-8z" fill="#581166"/><path d="m728.6 817.2h-336.2c-4.4 0-8 3.6-8 8s3.6 8 8 8h336.2c4.4 0 8-3.6 8-8s-3.6-8-8-8z" fill="#581166"/><path d="m352.3 268.4a57.5 57.5 0 1 0 115 0 57.5 57.5 0 1 0 -115 0z" fill="#ff5855"/><path d="m409.8 229.2c21.6 0 39.2 17.6 39.2 39.2s-17.6 39.2-39.2 39.2-39.2-17.6-39.2-39.2 17.6-39.2 39.2-39.2m0-18.3c-31.8 0-57.5 25.7-57.5 57.5s25.7 57.5 57.5 57.5 57.5-25.7 57.5-57.5-25.7-57.5-57.5-57.5z" fill="#581166"/></svg>