<?xml version="1.0" standalone="no"?><!DOCTYPE svg PUBLIC "-//W3C//DTD SVG 1.1//EN" "http://www.w3.org/Graphics/SVG/1.1/DTD/svg11.dtd"><svg class="icon" width="48px" height="48.00px" viewBox="0 0 1024 1024" version="1.1" xmlns="http://www.w3.org/2000/svg"><path d="M784 160H672v224h-288V160H160v704h128v-288h448v288h128V240z" fill="#34B5C7" /><path d="M576 352h64V192h-64v160z m310.624-134.624l-80-80A31.904 31.904 0 0 0 784 128H160a32 32 0 0 0-32 32v704a32 32 0 0 0 32 32h361.952l-51.904 51.872 22.624 22.624 90.496-90.496-90.496-90.496-22.624 22.624L521.952 864H288v-288h448v320h128a32 32 0 0 0 32-32V240a31.872 31.872 0 0 0-9.376-22.624zM384 160h288v224h-288V160z m480 704h-96v-288a32 32 0 0 0-32-32H288a32 32 0 0 0-32 32v288H160V160h192v224a32 32 0 0 0 32 32h288a32 32 0 0 0 32-32V160h80L864 240V864z" fill="#413A4D" /></svg>